<svg width="218" height="48" viewBox="0 0 218 48" fill="none" xmlns="http://www.w3.org/2000/svg">
<rect width="218" height="48" rx="24" fill="#1F2729"/>
<path d="M62.9141 27.0156C62.9141 26.5729 62.7578 26.2344 62.4453 26C62.1328 25.7604 61.5703 25.5104 60.7578 25.25C59.9453 24.9844 59.3021 24.724 58.8281 24.4688C57.5365 23.7708 56.8906 22.8307 56.8906 21.6484C56.8906 21.0339 57.0625 20.487 57.4062 20.0078C57.7552 19.5234 58.2526 19.1458 58.8984 18.875C59.5495 18.6042 60.2786 18.4688 61.0859 18.4688C61.8984 18.4688 62.6224 18.6172 63.2578 18.9141C63.8932 19.2057 64.3854 19.6198 64.7344 20.1562C65.0885 20.6927 65.2656 21.3021 65.2656 21.9844H62.9219C62.9219 21.4635 62.7578 21.0599 62.4297 20.7734C62.1016 20.4818 61.6406 20.3359 61.0469 20.3359C60.474 20.3359 60.0286 20.4583 59.7109 20.7031C59.3932 20.9427 59.2344 21.2604 59.2344 21.6562C59.2344 22.026 59.4193 22.3359 59.7891 22.5859C60.1641 22.8359 60.7135 23.0703 61.4375 23.2891C62.7708 23.6901 63.7422 24.1875 64.3516 24.7812C64.9609 25.375 65.2656 26.1146 65.2656 27C65.2656 27.9844 64.8932 28.7578 64.1484 29.3203C63.4036 29.8776 62.401 30.1562 61.1406 30.1562C60.2656 30.1562 59.4688 29.9974 58.75 29.6797C58.0312 29.3568 57.4818 28.9167 57.1016 28.3594C56.7266 27.8021 56.5391 27.1562 56.5391 26.4219H58.8906C58.8906 27.6771 59.6406 28.3047 61.1406 28.3047C61.6979 28.3047 62.1328 28.1927 62.4453 27.9688C62.7578 27.7396 62.9141 27.4219 62.9141 27.0156ZM69.0938 30H66.8281V21.5469H69.0938V30ZM66.6953 19.3594C66.6953 19.0208 66.8073 18.7422 67.0312 18.5234C67.2604 18.3047 67.5703 18.1953 67.9609 18.1953C68.3464 18.1953 68.6536 18.3047 68.8828 18.5234C69.112 18.7422 69.2266 19.0208 69.2266 19.3594C69.2266 19.7031 69.1094 19.9844 68.875 20.2031C68.6458 20.4219 68.3411 20.5312 67.9609 20.5312C67.5807 20.5312 67.2734 20.4219 67.0391 20.2031C66.8099 19.9844 66.6953 19.7031 66.6953 19.3594ZM73.0391 21.5469L73.1094 22.5234C73.7135 21.7682 74.5234 21.3906 75.5391 21.3906C76.4349 21.3906 77.1016 21.6536 77.5391 22.1797C77.9766 22.7057 78.2005 23.4922 78.2109 24.5391V30H75.9531V24.5938C75.9531 24.1146 75.849 23.7682 75.6406 23.5547C75.4323 23.3359 75.0859 23.2266 74.6016 23.2266C73.9661 23.2266 73.4896 23.4974 73.1719 24.0391V30H70.9141V21.5469H73.0391ZM79.6016 25.7109C79.6016 24.4141 79.9089 23.3698 80.5234 22.5781C81.1432 21.7865 81.9766 21.3906 83.0234 21.3906C83.9505 21.3906 84.6719 21.7083 85.1875 22.3438L85.2812 21.5469H87.3281V29.7188C87.3281 30.4583 87.1589 31.1016 86.8203 31.6484C86.487 32.1953 86.0156 32.612 85.4062 32.8984C84.7969 33.1849 84.0833 33.3281 83.2656 33.3281C82.6458 33.3281 82.0417 33.2031 81.4531 32.9531C80.8646 32.7083 80.4193 32.3906 80.1172 32L81.1172 30.625C81.6797 31.2552 82.362 31.5703 83.1641 31.5703C83.763 31.5703 84.2292 31.4089 84.5625 31.0859C84.8958 30.7682 85.0625 30.3151 85.0625 29.7266V29.2734C84.5417 29.862 83.8568 30.1562 83.0078 30.1562C81.9922 30.1562 81.1693 29.7604 80.5391 28.9688C79.9141 28.1719 79.6016 27.1172 79.6016 25.8047V25.7109ZM81.8594 25.875C81.8594 26.6406 82.013 27.2422 82.3203 27.6797C82.6276 28.112 83.0495 28.3281 83.5859 28.3281C84.2734 28.3281 84.7656 28.0703 85.0625 27.5547V24C84.7604 23.4844 84.2734 23.2266 83.6016 23.2266C83.0599 23.2266 82.6328 23.4479 82.3203 23.8906C82.013 24.3333 81.8594 24.9948 81.8594 25.875ZM95.4375 30H93.1719V21.5469H95.4375V30ZM93.0391 19.3594C93.0391 19.0208 93.151 18.7422 93.375 18.5234C93.6042 18.3047 93.9141 18.1953 94.3047 18.1953C94.6901 18.1953 94.9974 18.3047 95.2266 18.5234C95.4557 18.7422 95.5703 19.0208 95.5703 19.3594C95.5703 19.7031 95.4531 19.9844 95.2188 20.2031C94.9896 20.4219 94.6849 20.5312 94.3047 20.5312C93.9245 20.5312 93.6172 20.4219 93.3828 20.2031C93.1536 19.9844 93.0391 19.7031 93.0391 19.3594ZM99.3828 21.5469L99.4531 22.5234C100.057 21.7682 100.867 21.3906 101.883 21.3906C102.779 21.3906 103.445 21.6536 103.883 22.1797C104.32 22.7057 104.544 23.4922 104.555 24.5391V30H102.297V24.5938C102.297 24.1146 102.193 23.7682 101.984 23.5547C101.776 23.3359 101.43 23.2266 100.945 23.2266C100.31 23.2266 99.8333 23.4974 99.5156 24.0391V30H97.2578V21.5469H99.3828ZM117.609 26.9297L118.719 21.5469H120.898L118.742 30H116.852L115.25 24.6797L113.648 30H111.766L109.609 21.5469H111.789L112.891 26.9219L114.438 21.5469H116.07L117.609 26.9297ZM124.406 30H122.141V21.5469H124.406V30ZM122.008 19.3594C122.008 19.0208 122.12 18.7422 122.344 18.5234C122.573 18.3047 122.883 18.1953 123.273 18.1953C123.659 18.1953 123.966 18.3047 124.195 18.5234C124.424 18.7422 124.539 19.0208 124.539 19.3594C124.539 19.7031 124.422 19.9844 124.188 20.2031C123.958 20.4219 123.654 20.5312 123.273 20.5312C122.893 20.5312 122.586 20.4219 122.352 20.2031C122.122 19.9844 122.008 19.7031 122.008 19.3594ZM128.977 19.4688V21.5469H130.422V23.2031H128.977V27.4219C128.977 27.7344 129.036 27.9583 129.156 28.0938C129.276 28.2292 129.505 28.2969 129.844 28.2969C130.094 28.2969 130.315 28.2786 130.508 28.2422V29.9531C130.065 30.0885 129.609 30.1562 129.141 30.1562C127.557 30.1562 126.75 29.3568 126.719 27.7578V23.2031H125.484V21.5469H126.719V19.4688H128.977ZM133.883 22.4688C134.482 21.75 135.234 21.3906 136.141 21.3906C137.974 21.3906 138.904 22.4557 138.93 24.5859V30H136.672V24.6484C136.672 24.1641 136.568 23.8073 136.359 23.5781C136.151 23.3438 135.805 23.2266 135.32 23.2266C134.659 23.2266 134.18 23.4818 133.883 23.9922V30H131.625V18H133.883V22.4688ZM153.766 28.5625C153.344 29.0677 152.747 29.4609 151.977 29.7422C151.206 30.0182 150.352 30.1562 149.414 30.1562C148.43 30.1562 147.565 29.9427 146.82 29.5156C146.081 29.0833 145.508 28.4583 145.102 27.6406C144.701 26.8229 144.495 25.862 144.484 24.7578V23.9844C144.484 22.849 144.674 21.8672 145.055 21.0391C145.44 20.2057 145.992 19.5703 146.711 19.1328C147.435 18.6901 148.281 18.4688 149.25 18.4688C150.599 18.4688 151.654 18.7917 152.414 19.4375C153.174 20.0781 153.625 21.013 153.766 22.2422H151.484C151.38 21.5911 151.148 21.1146 150.789 20.8125C150.435 20.5104 149.945 20.3594 149.32 20.3594C148.523 20.3594 147.917 20.6589 147.5 21.2578C147.083 21.8568 146.872 22.7474 146.867 23.9297V24.6562C146.867 25.849 147.094 26.75 147.547 27.3594C148 27.9688 148.664 28.2734 149.539 28.2734C150.419 28.2734 151.047 28.0859 151.422 27.7109V25.75H149.289V24.0234H153.766V28.5625ZM157.906 30H155.641V21.5469H157.906V30ZM155.508 19.3594C155.508 19.0208 155.62 18.7422 155.844 18.5234C156.073 18.3047 156.383 18.1953 156.773 18.1953C157.159 18.1953 157.466 18.3047 157.695 18.5234C157.924 18.7422 158.039 19.0208 158.039 19.3594C158.039 19.7031 157.922 19.9844 157.688 20.2031C157.458 20.4219 157.154 20.5312 156.773 20.5312C156.393 20.5312 156.086 20.4219 155.852 20.2031C155.622 19.9844 155.508 19.7031 155.508 19.3594ZM162.477 19.4688V21.5469H163.922V23.2031H162.477V27.4219C162.477 27.7344 162.536 27.9583 162.656 28.0938C162.776 28.2292 163.005 28.2969 163.344 28.2969C163.594 28.2969 163.815 28.2786 164.008 28.2422V29.9531C163.565 30.0885 163.109 30.1562 162.641 30.1562C161.057 30.1562 160.25 29.3568 160.219 27.7578V23.2031H158.984V21.5469H160.219V19.4688H162.477ZM174.586 30H172.242V25.125H167.672V30H165.328V18.625H167.672V23.2344H172.242V18.625H174.586V30ZM181.555 29.1406C180.997 29.8177 180.227 30.1562 179.242 30.1562C178.336 30.1562 177.643 29.8958 177.164 29.375C176.69 28.8542 176.448 28.0911 176.438 27.0859V21.5469H178.695V27.0078C178.695 27.888 179.096 28.3281 179.898 28.3281C180.664 28.3281 181.19 28.0625 181.477 27.5312V21.5469H183.742V30H181.617L181.555 29.1406ZM193.062 25.8516C193.062 27.2057 192.773 28.263 192.195 29.0234C191.617 29.7786 190.81 30.1562 189.773 30.1562C188.857 30.1562 188.125 29.8047 187.578 29.1016L187.477 30H185.445V18H187.703V22.3047C188.224 21.6953 188.909 21.3906 189.758 21.3906C190.789 21.3906 191.596 21.7708 192.18 22.5312C192.768 23.2865 193.062 24.3516 193.062 25.7266V25.8516ZM190.805 25.6875C190.805 24.8333 190.669 24.2109 190.398 23.8203C190.128 23.4245 189.724 23.2266 189.188 23.2266C188.469 23.2266 187.974 23.5208 187.703 24.1094V27.4453C187.979 28.0391 188.479 28.3359 189.203 28.3359C189.932 28.3359 190.411 27.9766 190.641 27.2578C190.75 26.9141 190.805 26.3906 190.805 25.6875Z" fill="#E1E1E6"/>
<path d="M28 13C21.9225 13 17 17.8208 17 23.7664C17 28.5242 20.1515 32.5589 24.5212 33.9814C25.0712 34.0828 25.2729 33.7495 25.2729 33.4637C25.2729 33.2081 25.2638 32.5306 25.2592 31.6331C22.1993 32.2823 21.554 30.1887 21.554 30.1887C21.0535 28.9461 20.3302 28.6137 20.3302 28.6137C19.3338 27.9463 20.4072 27.96 20.4072 27.96C21.5118 28.0349 22.0921 29.0693 22.0921 29.0693C23.0729 30.7155 24.667 30.2398 25.2958 29.965C25.3948 29.2684 25.6781 28.7945 25.9925 28.5252C23.5496 28.2558 20.982 27.33 20.982 23.2049C20.982 22.0299 21.4082 21.0694 22.1141 20.3161C21.9903 20.044 21.6191 18.9493 22.2103 17.4665C22.2103 17.4665 23.1316 17.178 25.2353 18.5704C26.1153 18.3312 27.0503 18.2125 27.9853 18.207C28.9203 18.2125 29.8553 18.3312 30.7353 18.5704C32.8253 17.178 33.7466 17.4665 33.7466 17.4665C34.3378 18.9493 33.9666 20.044 33.8566 20.3161C34.5578 21.0694 34.9841 22.0299 34.9841 23.2049C34.9841 27.341 32.4128 28.2513 29.9653 28.516C30.3503 28.8392 30.7078 29.4994 30.7078 30.5083C30.7078 31.949 30.6941 33.1067 30.6941 33.4564C30.6941 33.7386 30.8866 34.0755 31.4503 33.9677C35.8512 32.5544 39 28.5169 39 23.7664C39 17.8208 34.0747 13 28 13Z" fill="#EBA417"/>
</svg>
